<svg width="48" height="48" viewBox="0 0 48 48" fill="none" xmlns="http://www.w3.org/2000/svg">
<rect x="3" y="3" width="42" height="42" rx="7.63636" fill="#FF2D55"/>
<path d="M13.7265 37.8555H34.2885C37.4345 37.8555 39 36.2901 39 33.1892V14.8099C39 11.709 37.4345 10.1436 34.2885 10.1436H13.7265C10.5805 10.1436 9 11.694 9 14.8099V33.1892C9 36.3051 10.5805 37.8555 13.7265 37.8555ZM13.5008 35.4321C12.1611 35.4321 11.4235 34.7246 11.4235 33.3247V19.13C11.4235 17.7452 12.1611 17.0226 13.5008 17.0226H34.4842C35.8239 17.0226 36.5765 17.7452 36.5765 19.13V33.3247C36.5765 34.7246 35.8239 35.4321 34.4842 35.4321H13.5008ZM21.0572 22.4265H21.9453C22.4722 22.4265 22.6528 22.276 22.6528 21.7492V20.8611C22.6528 20.3342 22.4722 20.1686 21.9453 20.1686H21.0572C20.5304 20.1686 20.3497 20.3342 20.3497 20.8611V21.7492C20.3497 22.276 20.5304 22.4265 21.0572 22.4265ZM26.0697 22.4265H26.9428C27.4696 22.4265 27.6503 22.276 27.6503 21.7492V20.8611C27.6503 20.3342 27.4696 20.1686 26.9428 20.1686H26.0697C25.5278 20.1686 25.3623 20.3342 25.3623 20.8611V21.7492C25.3623 22.276 25.5278 22.4265 26.0697 22.4265ZM31.0672 22.4265H31.9553C32.4822 22.4265 32.6478 22.276 32.6478 21.7492V20.8611C32.6478 20.3342 32.4822 20.1686 31.9553 20.1686H31.0672C30.5404 20.1686 30.3598 20.3342 30.3598 20.8611V21.7492C30.3598 22.276 30.5404 22.4265 31.0672 22.4265ZM16.0597 27.3488H16.9478C17.4747 27.3488 17.6402 27.1982 17.6402 26.6714V25.7833C17.6402 25.2565 17.4747 25.1059 16.9478 25.1059H16.0597C15.5329 25.1059 15.3522 25.2565 15.3522 25.7833V26.6714C15.3522 27.1982 15.5329 27.3488 16.0597 27.3488ZM21.0572 27.3488H21.9453C22.4722 27.3488 22.6528 27.1982 22.6528 26.6714V25.7833C22.6528 25.2565 22.4722 25.1059 21.9453 25.1059H21.0572C20.5304 25.1059 20.3497 25.2565 20.3497 25.7833V26.6714C20.3497 27.1982 20.5304 27.3488 21.0572 27.3488ZM26.0697 27.3488H26.9428C27.4696 27.3488 27.6503 27.1982 27.6503 26.6714V25.7833C27.6503 25.2565 27.4696 25.1059 26.9428 25.1059H26.0697C25.5278 25.1059 25.3623 25.2565 25.3623 25.7833V26.6714C25.3623 27.1982 25.5278 27.3488 26.0697 27.3488ZM31.0672 27.3488H31.9553C32.4822 27.3488 32.6478 27.1982 32.6478 26.6714V25.7833C32.6478 25.2565 32.4822 25.1059 31.9553 25.1059H31.0672C30.5404 25.1059 30.3598 25.2565 30.3598 25.7833V26.6714C30.3598 27.1982 30.5404 27.3488 31.0672 27.3488ZM16.0597 32.2861H16.9478C17.4747 32.2861 17.6402 32.1205 17.6402 31.5936V30.7055C17.6402 30.1787 17.4747 30.0282 16.9478 30.0282H16.0597C15.5329 30.0282 15.3522 30.1787 15.3522 30.7055V31.5936C15.3522 32.1205 15.5329 32.2861 16.0597 32.2861ZM21.0572 32.2861H21.9453C22.4722 32.2861 22.6528 32.1205 22.6528 31.5936V30.7055C22.6528 30.1787 22.4722 30.0282 21.9453 30.0282H21.0572C20.5304 30.0282 20.3497 30.1787 20.3497 30.7055V31.5936C20.3497 32.1205 20.5304 32.2861 21.0572 32.2861ZM26.0697 32.2861H26.9428C27.4696 32.2861 27.6503 32.1205 27.6503 31.5936V30.7055C27.6503 30.1787 27.4696 30.0282 26.9428 30.0282H26.0697C25.5278 30.0282 25.3623 30.1787 25.3623 30.7055V31.5936C25.3623 32.1205 25.5278 32.2861 26.0697 32.2861Z" fill="white"/>
</svg>
