<svg width="48" height="48" viewBox="0 0 48 48" fill="none" xmlns="http://www.w3.org/2000/svg">
<rect x="3" y="3" width="42" height="42" rx="7.63636" fill="#5856D6"/>
<path d="M38.1736 17.3221L35.4723 20.0234C35.1969 20.2988 34.7516 20.2988 34.4762 20.0234L27.972 13.5192C27.6966 13.2438 27.6966 12.7985 27.972 12.5231L30.6733 9.82181C31.769 8.72606 33.5504 8.72606 34.652 9.82181L38.1736 13.3434C39.2752 14.4392 39.2752 16.2205 38.1736 17.3221ZM25.6516 14.8435L10.2643 30.2308L9.02205 37.3502C8.85212 38.3112 9.69005 39.1433 10.651 38.9792L17.7704 37.7311L33.1578 22.3438C33.4332 22.0684 33.4332 21.6231 33.1578 21.3477L26.6536 14.8435C26.3723 14.5681 25.927 14.5681 25.6516 14.8435V14.8435ZM16.2704 28.9124C15.9481 28.5901 15.9481 28.0745 16.2704 27.7522L25.2942 18.7284C25.6165 18.4061 26.1321 18.4061 26.4544 18.7284C26.7767 19.0507 26.7767 19.5663 26.4544 19.8886L17.4306 28.9124C17.1083 29.2347 16.5927 29.2347 16.2704 28.9124V28.9124ZM14.1551 33.8403H16.9677V35.9674L13.1882 36.6295L11.3659 34.8072L12.028 31.0277H14.1551V33.8403Z" fill="white"/>
</svg>
