<svg width="48" height="48" viewBox="0 0 48 48" fill="none" xmlns="http://www.w3.org/2000/svg">
<rect x="3" y="3" width="42" height="42" rx="7.63636" fill="#AF52DE"/>
<path d="M23.9941 9.89071C24.041 10.1661 24.9375 15.4278 24.9375 17.4376C24.9375 20.502 23.3086 22.6875 20.9004 23.5665L21.6562 37.5176C21.6972 38.3203 21.0586 39 20.25 39H16.5C15.6973 39 15.0527 38.3262 15.0937 37.5176L15.8496 23.5665C13.4355 22.6875 11.8125 20.4961 11.8125 17.4376C11.8125 15.4219 12.709 10.1661 12.7559 9.89071C12.9434 8.70126 15.4101 8.68368 15.5625 9.95516V18.2286C15.6387 18.4278 16.4473 18.4161 16.5 18.2286C16.582 16.7462 16.9629 10.0723 16.9687 9.92C17.1621 8.70126 19.5879 8.70126 19.7754 9.92C19.7871 10.0782 20.1621 16.7462 20.2441 18.2286C20.2969 18.4161 21.1113 18.4278 21.1816 18.2286V9.95516C21.334 8.68954 23.8066 8.70126 23.9941 9.89071ZM30.9785 26.6309L30.0996 37.4766C30.0292 38.2969 30.6796 39 31.4999 39H34.7812C35.5605 39 36.1874 38.3731 36.1874 37.5938V10.4063C36.1874 9.63289 35.5605 9.00008 34.7812 9.00008C29.9472 9.00008 21.8086 19.459 30.9785 26.6309Z" fill="white"/>
</svg>
